<svg id="Layer_1" data-name="Layer 1" xmlns="http://www.w3.org/2000/svg" viewBox="0 0 109.57 110.15"><defs><style>.cls-1{fill:#4a7079;}</style></defs><path class="cls-1" d="M117.37,130.08a12.39,12.39,0,0,1-8.84-3.67L86.36,104.24a3,3,0,0,0-2.06-.87,2.47,2.47,0,0,0-1.08.24,43.59,43.59,0,0,1-19,4.31c-1.12,0-2.26,0-3.38-.12a44,44,0,0,1,3.38-87.88c.93,0,1.88,0,2.81.09A44,44,0,0,1,103.6,83.54a2.81,2.81,0,0,0,.6,3.19L126,108.55a12.72,12.72,0,0,1,.45,17.59,12.55,12.55,0,0,1-9.1,3.94ZM64.22,44.92a19,19,0,1,0,19,19A19,19,0,0,0,64.22,44.92Z" transform="translate(-20.22 -19.92)"/></svg>