<svg xmlns="http://www.w3.org/2000/svg" viewBox="0 0 70 115.05" xmlns:v="https://vecta.io/nano"><path d="M61 109.34a9 9 0 0 0 9-9V15.29a9 9 0 0 0-9-9L9 6.37a9 9 0 0 0-9 9v85.16a9 9 0 0 0 9 9zm-1.17-19a9 9 0 0 1-9 9H19.12a9 9 0 0 1-9-9V25.53a9 9 0 0 1 9-9h31.76a9 9 0 0 1 9 9z" fill="#4a7079"/><path d="M43.1 74.09c-1.39 1.4-2.54.92-2.54-1V30.58a9.57 9.57 0 0 1 2.61-6.05l23.17-22c1.43-1.36 1-2.48-1-2.48h-5.29a10.28 10.28 0 0 0-6.16 2.48L17.21 37.97a9.72 9.72 0 0 0-2.58 6.09v4.71a26.41 26.41 0 0 0 .14 3.76 17.31 17.31 0 0 0 2.68-2.4l10.34-10.3c1.4-1.4 2.54-.92 2.54 1v42.52a10.33 10.33 0 0 1-2.48 6.18l-22 22.92c-1.37 1.42-.87 2.59 1.1 2.59h5.25a9.77 9.77 0 0 0 6.09-2.51l35.57-36.6a10.26 10.26 0 0 0 2.5-6.17v-5.1l-.07-3.65a31.74 31.74 0 0 0-2.61 2.52z" fill="#93b0b6"/></svg>